<?xml version="1.0" encoding="iso-8859-1"?>
<!-- Generator: Adobe Illustrator 19.0.0, SVG Export Plug-In . SVG Version: 6.00 Build 0)  -->
<svg xmlns="http://www.w3.org/2000/svg" xmlns:xlink="http://www.w3.org/1999/xlink" version="1.1" id="Layer_1" x="0px" y="0px" viewBox="0 0 512 512" style="enable-background:new 0 0 512 512;" xml:space="preserve" width="512" height="512">
<g>
	<path style="fill:#61D7A8;" d="M316,76c0,15-3.3,29.399-9.901,41.7H205.901C199.3,105.399,196,91,196,76   c0-35.101,30.3-67.901,33.6-71.501L234.101,0h43.799l4.501,4.499C285.7,8.099,316,40.899,316,76z"/>
	<path style="fill:#00AB94;" d="M316,76c0,15-3.3,29.399-9.901,41.7H256V0h21.899l4.501,4.499C285.7,8.099,316,40.899,316,76z"/>
	<polygon style="fill:#61D7A8;" points="298.299,436.3 283.299,512 228.701,512 213.701,436.3  "/>
	<path style="fill:#61D7A8;" d="M131.166,347.567C87.88,371.313,61,416.679,61,466v15h45c41.016,0,78.516-24.111,95.552-61.421   L131.166,347.567z"/>
	<path style="fill:#00AB94;" d="M380.834,347.567l-70.386,72.012C327.484,456.889,364.984,481,406,481h45v-15   C451,416.679,424.12,371.313,380.834,347.567z"/>
	<polygon style="fill:#00AB94;" points="256,436.3 298.299,436.3 283.299,512 256,512  "/>
	<path style="fill:#00AB94;" d="M421.527,123.051c-24.346-6.548-50.215-4.102-72.905,6.885l50.654,111.387l92.622,24.814   l3.882-14.487C510.766,195.722,477.455,138.021,421.527,123.051z"/>
	<path style="fill:#61D7A8;" d="M90.473,123.051C34.545,138.021,1.234,195.722,16.22,251.649l3.882,14.487l92.622-24.814   l50.654-111.387C140.688,118.949,114.818,116.503,90.473,123.051z"/>
	<path style="fill:#3E5959;" d="M352.301,382.599l-9.901,35.7C317.5,438.399,288.1,451,256,451s-61.5-12.601-86.4-32.701   l-9.901-35.7L211,344.5l45-30l45,30L352.301,382.599z"/>
	<path style="fill:#293939;" d="M352.301,382.599l-9.901,35.7C317.5,438.399,288.1,451,256,451V314.5l45,30L352.301,382.599z"/>
	<path style="fill:#3E5959;" d="M301,344.462l41.409,73.914c43.526-34.856,73.193-92.472,77.86-147.376l-39.545-30L346,271   l-56.623,43.462L301,344.462z"/>
	<path style="fill:#293939;" d="M346,271h74.269c0.427-5.026,0.731-10.042,0.731-15c0-58.017-30.168-109.034-75.571-138.461   l-56.513,16.821L301,196l-11.415,60.976L346,271z"/>
	<path style="fill:#537983;" d="M169.591,418.376L211,344.462l11.624-59.999L166,271l-34.724-30l-39.545,30   C96.398,325.904,126.065,383.52,169.591,418.376z"/>
	<path style="fill:#3E5959;" d="M211,196l11.245-63.122l-55.673-15.339C121.168,146.966,91,197.983,91,256   c0,4.958,0.304,9.974,0.731,15H166l52.941-38.235L211,196z"/>
	<path style="fill:#537983;" d="M345.399,117.4L301,196l-45,30l-45-30l-44.399-78.6C192.4,100.899,223.001,91,256,91   S319.6,100.899,345.399,117.4z"/>
	<path style="fill:#3E5959;" d="M345.399,117.4L301,196l-45,30V91C288.999,91,319.6,100.899,345.399,117.4z"/>
	<path style="fill:#678D98;" d="M301,196h-90l-45,75l45,73.5h90l45-73.5L301,196z"/>
	<polygon style="fill:#537983;" points="346,271 301,344.5 256,344.5 256,196 301,196  "/>
</g>















</svg>
